<svg width="24" height="24" viewBox="0 0 24 24" fill="none" xmlns="http://www.w3.org/2000/svg">
  <g id="Iconly/Broken/Category">
    <g id="Category">
      <path id="Category_2" fill-rule="evenodd" clip-rule="evenodd" d="M21.4912 5.44328V8.30543C21.5006 9.08363 21.2068 9.83377 20.6743 10.3908C20.1419 10.9478 19.4145 11.2661 18.6522 11.2756H17.4884C17.0941 11.2325 16.7951 10.8928 16.7951 10.488C16.7951 10.0832 17.0941 9.74359 17.4884 9.7005H18.6169C18.9739 9.69813 19.3152 9.55048 19.5651 9.29027C19.8151 9.03006 19.953 8.67882 19.9483 8.31443V5.44328C19.9388 4.69674 19.3482 4.0939 18.6169 4.08421H15.8044C15.0691 4.08421 14.4731 4.69268 14.4731 5.44328V9.7365C14.4587 10.1718 14.1062 10.5157 13.6796 10.5105C13.4746 10.5059 13.2799 10.4176 13.1391 10.2654C12.9983 10.1132 12.923 9.90973 12.9302 9.7005V5.44328C12.9278 4.66353 13.2296 3.9149 13.7689 3.3627C14.3082 2.81049 15.0406 2.50012 15.8044 2.50012H18.6169C20.192 2.5383 21.4586 3.83527 21.4912 5.44328ZM8.19559 2.50012H5.38306C3.7948 2.50995 2.50963 3.82191 2.5 5.44328V8.31443C2.50967 9.93432 3.79622 11.2437 5.38306 11.2486H8.19559C8.95942 11.251 9.69276 10.9429 10.2337 10.3924C10.7746 9.84186 11.0787 9.09418 11.0787 8.31443V5.44328C11.0738 3.81987 9.78585 2.50506 8.19559 2.50012ZM9.52691 8.31443C9.53162 8.67882 9.39372 9.03006 9.14379 9.29027C8.89386 9.55048 8.55256 9.69814 8.19559 9.7005H5.38306C5.02078 9.70792 4.67118 9.56428 4.41496 9.30271C4.15873 9.04115 4.01802 8.68426 4.02529 8.31443V5.44328C4.02522 5.0781 4.16911 4.72826 4.42453 4.47259C4.67995 4.21693 5.02541 4.07695 5.38306 4.08421H8.19559C8.92886 4.08911 9.52211 4.69473 9.52691 5.44328V8.31443ZM15.8044 12.7517H18.6169C20.2038 12.7566 21.4903 14.0659 21.5 15.6858V18.557C21.4904 20.1783 20.2052 21.4903 18.6169 21.5001H15.8044C14.2176 21.4903 12.935 20.1769 12.9302 18.557V15.6858C12.9302 14.0653 14.217 12.7517 15.8044 12.7517ZM19.5609 19.5206C19.8111 19.2652 19.9506 18.9181 19.9483 18.557V15.6858C19.9483 15.3254 19.808 14.9797 19.5583 14.7248C19.3087 14.4699 18.97 14.3267 18.6169 14.3267H15.8044C15.0691 14.3267 14.4731 14.9352 14.4731 15.6858V18.557C14.4707 18.9181 14.6102 19.2652 14.8604 19.5206C15.1106 19.776 15.4506 19.9185 15.8044 19.916H18.6169C18.9707 19.9185 19.3107 19.776 19.5609 19.5206ZM2.5 18.548V15.6858C2.5 14.9061 2.80403 14.1584 3.34496 13.6079C3.8859 13.0574 4.61924 12.7493 5.38306 12.7517H6.53805C6.83336 12.7194 7.12081 12.8621 7.27835 13.1191C7.4359 13.3761 7.4359 13.7024 7.27835 13.9594C7.12081 14.2164 6.83336 14.359 6.53805 14.3268H5.38306C4.64635 14.3267 4.04777 14.9338 4.04292 15.6858V18.521C4.06166 19.267 4.65217 19.8659 5.38306 19.8801H8.21322C8.56784 19.8824 8.90874 19.7403 9.16032 19.4852C9.4119 19.23 9.55337 18.883 9.55336 18.521V14.2638C9.49586 13.9458 9.63341 13.6241 9.90087 13.451C10.1683 13.2779 10.512 13.2881 10.7692 13.4768C11.0263 13.6655 11.1453 13.9948 11.0698 14.3088V18.548C11.0698 20.1734 9.77905 21.4911 8.18677 21.4911H5.38306C3.80456 21.4577 2.53275 20.1594 2.5 18.548Z" fill="black" />
    </g>
  </g>
</svg>